PathFileType	4	(X/Y/Z)	C:\Users\°ÂÌØÂü\Desktop\20201223\Trimmed_bx_y_0_501.trc
DataRate	CameraRate	NumFrames	NumMarkers	Units	OrigDataRate	OrigDataStartFrame	OrigNumFrames
50.00	50.00	      4	43	mm	50.00	1143	      1306
Frame#	Time	Top.Head			R.Acromium			L.Acromium			Sternum			R.ASIS			L.ASIS			V.Sacral			R.Thigh.Upper			R.Thigh.Front			R.Thigh.Rear			R.Knee.Lat			R.Knee.Med			R.Shank.Upper			R.Shank.Front			R.Shank.Rear			R.Ankle.Lat			R.Midfoot.Lat			R.Toe.Lat			R.Toe.Tip			R.Toe.Med			R.Ankle.Med			R.Midfoot.Sup			R.Heel			L.Thigh.Upper			L.Thigh.Front			L.Thigh.Rear			L.Knee.Lat			L.Knee.Med			L.Shank.Upper			L.Shank.Front			L.Shank.Rear			L.Ankle.Lat			L.Midfoot.Lat			L.Toe.Lat			L.Toe.Tip			L.Toe.Med			L.Ankle.Med			L.Midfoot.Sup			L.Heel			origin1 front left			origin2 front right			origin 3 back right			origin 4 back leftt			
		X1	Y1	Z1	X2	Y2	Z2	X3	Y3	Z3	X4	Y4	Z4	X5	Y5	Z5	X6	Y6	Z6	X7	Y7	Z7	X8	Y8	Z8	X9	Y9	Z9	X10	Y10	Z10	X11	Y11	Z11	X12	Y12	Z12	X13	Y13	Z13	X14	Y14	Z14	X15	Y15	Z15	X16	Y16	Z16	X17	Y17	Z17	X18	Y18	Z18	X19	Y19	Z19	X20	Y20	Z20	X21	Y21	Z21	X22	Y22	Z22	X23	Y23	Z23	X24	Y24	Z24	X25	Y25	Z25	X26	Y26	Z26	X27	Y27	Z27	X28	Y28	Z28	X29	Y29	Z29	X30	Y30	Z30	X31	Y31	Z31	X32	Y32	Z32	X33	Y33	Z33	X34	Y34	Z34	X35	Y35	Z35	X36	Y36	Z36	X37	Y37	Z37	X38	Y38	Z38	X39	Y39	Z39	X40	Y40	Z40	X41	Y41	Z41	X42	Y42	Z42	X43	Y43	Z43	

1143	22.840	-678.03656	262.73590	1836.73743	-622.83368	62.84478	1535.04919	-625.66040	459.42007	1513.28918	-529.68353	267.69901	1400.70093	-526.56525	151.62793	1056.72534	-525.12402	387.00385	1060.63586	-723.97510	248.20035	1051.52795	-561.99194	96.94914	892.53339	-515.47144	156.51315	842.25031	-611.47693	92.28449	747.78845	-650.02362	124.27688	597.28784	-627.51154	230.38930	557.66193	-680.76935	123.74356	541.58051	-597.80865	169.30281	540.72296	-719.86005	126.30740	474.65637	-686.43085	146.50658	214.92278	-615.77942	79.16724	168.22160	-570.89008	52.91022	162.85927	-491.94464	92.86893	160.93234	-531.02490	145.41837	163.30241	-632.96045	219.96481	217.84552	-591.37677	190.73904	167.89980	-717.03601	214.53920	170.08206	-564.25879	437.78940	883.13190	-515.30444	378.14609	836.20636	-609.61218	436.83698	748.48187	-655.05237	415.44125	625.83276	-611.24323	315.54288	573.41486	-663.29266	413.25171	561.72058	-607.48938	373.34824	536.32629	-713.03253	415.78058	509.60141	-679.33374	413.94669	212.44574	-585.44641	468.50769	164.46924	-547.17303	479.39691	160.40596	-487.82663	428.17029	169.41776	-524.85516	386.77301	178.14934	-642.74792	326.43591	206.67215	-593.84015	347.17264	168.97473	-732.18481	342.59821	164.79411	-443.97665	448.65341	148.14890	-450.29672	75.76564	143.95825	-806.34698	82.67739	142.52774	-799.18286	457.46317	145.16278	
1144	22.860	-677.93457	262.76263	1836.72180	-622.71252	62.76162	1535.02661	-625.48615	459.41196	1513.24463	-529.61658	267.64490	1400.64453	-526.66498	151.66444	1056.67664	-525.15259	387.00290	1060.66980	-724.09662	248.27679	1051.59607	-562.10950	96.97967	892.58789	-515.56934	156.48909	842.30939	-611.54620	92.25140	747.86609	-650.05896	124.27556	597.29901	-627.46436	230.40236	557.66339	-680.76843	123.74376	541.55145	-597.81091	169.40346	540.80145	-719.88257	126.36053	474.64041	-686.43066	146.50415	214.92574	-615.76953	79.17381	168.22021	-570.87836	52.91533	162.84200	-491.95016	92.85679	160.94226	-531.05414	145.42142	163.28519	-632.95953	220.02934	217.86386	-591.32391	190.77007	167.85143	-717.01727	214.59000	170.06654	-564.26727	437.78561	883.13934	-515.34973	378.14804	836.21313	-609.66235	436.85437	748.47876	-655.06873	415.47800	625.82996	-611.17920	315.60037	573.42700	-663.30756	413.31247	561.71661	-607.46844	373.37347	536.34332	-713.05670	415.80164	509.59592	-679.35938	413.92911	212.41663	-585.44647	468.52151	164.47656	-547.15607	479.38135	160.43930	-487.82050	428.18112	169.40579	-524.85480	386.75262	178.16374	-642.74738	326.43744	206.67252	-593.84882	347.17017	168.96942	-732.20947	342.56311	164.78799	-443.97324	448.66971	148.14752	-450.25754	75.74799	143.97356	-806.34131	82.67049	142.54971	-799.18744	457.44901	145.18283	
1145	22.880	-677.76929	262.73444	1836.71143	-622.57971	62.69469	1534.99878	-625.24115	459.39227	1513.21021	-529.48029	267.61041	1400.57813	-526.72113	151.68176	1056.62585	-525.18024	387.01944	1060.69165	-724.20715	248.30905	1051.63916	-562.21985	97.01073	892.62201	-515.63867	156.44760	842.34436	-611.61932	92.24023	747.95300	-650.09845	124.26302	597.30060	-627.44257	230.41298	557.66095	-680.77991	123.73943	541.53870	-597.89648	169.53561	540.83356	-719.90448	126.41458	474.61414	-686.43378	146.51007	214.91728	-615.76031	79.16690	168.19905	-570.87408	52.91076	162.83887	-491.95996	92.82275	160.96515	-531.07532	145.40814	163.27757	-632.85968	220.13548	217.97408	-591.29047	190.78255	167.77971	-716.98218	214.61702	170.03458	-564.28949	437.76761	883.14502	-515.40570	378.17334	836.18896	-609.69061	436.83173	748.46429	-655.09503	415.49652	625.82410	-611.15271	315.53696	573.52899	-663.31232	413.34949	561.72266	-607.45667	373.39276	536.36017	-713.06287	415.82544	509.58054	-679.38135	413.92804	212.37666	-585.44141	468.49408	164.50629	-547.13855	479.35480	160.49748	-487.81055	428.17398	169.41953	-524.83313	386.75723	178.17366	-642.75262	326.44150	206.67433	-593.84583	347.15753	168.96671	-732.25433	342.54532	164.79024	-443.98596	448.69019	148.13844	-450.22440	75.74203	143.96852	-806.33826	82.66652	142.56393	-799.19806	457.44089	145.18922	
1146	22.900	-677.53851	262.68863	1836.70667	-622.43304	62.67654	1534.97131	-624.96936	459.36856	1513.18774	-529.30469	267.60452	1400.48730	-526.75409	151.69341	1056.57312	-525.21350	387.02032	1060.68640	-724.28455	248.30803	1051.64624	-562.32391	97.03841	892.63940	-515.68524	156.38730	842.35760	-611.73138	92.21822	748.04108	-650.14844	124.25521	597.29126	-627.45667	230.42517	557.65601	-680.78766	123.73712	541.55725	-598.03107	169.65654	540.80481	-719.92615	126.44909	474.59335	-686.43744	146.51926	214.90471	-615.74414	79.15492	168.16216	-570.90076	52.89111	162.84726	-491.96814	92.79654	160.98293	-531.10565	145.39032	163.28734	-632.71832	220.21506	218.10675	-591.26318	190.79024	167.73711	-716.95447	214.62997	170.00673	-564.31879	437.75290	883.15778	-515.48016	378.22058	836.13367	-609.69733	436.77832	748.42725	-655.13831	415.50793	625.81110	-611.16138	315.35437	573.72833	-663.30994	413.34259	561.72650	-607.46423	373.39505	536.36578	-713.04633	415.84583	509.56754	-679.38007	413.93488	212.33583	-585.44287	468.44424	164.54832	-547.13226	479.32385	160.56311	-487.80545	428.15857	169.44237	-524.79578	386.77655	178.15932	-642.76929	326.44714	206.67772	-593.82928	347.14911	168.96738	-732.30481	342.55444	164.78879	-444.00836	448.69171	148.12862	-450.20236	75.74587	143.94743	-806.34259	82.67049	142.56271	-799.22839	457.43777	145.17535	
